STARTFONT 2.1
FONT calc.6x8
SIZE 7 80 80
FONTBOUNDINGBOX 6 8 0 -4

STARTPROPERTIES 9
POINT_SIZE 70
WEIGHT 10
RESOLUTION_X 80
RESOLUTION_Y 80
X_HEIGHT -2
QUAD_WIDTH 6
DEFAULT_CHAR 32
FONT_DESCENT 4
FONT_ASCENT 4
ENDPROPERTIES

CHARS 256

STARTCHAR onx0
ENCODING 0
SWIDTH 750 0
DWIDTH 6 0
BBX 6 8 0 -4
BITMAP
00
00
00
00
00
00
00
00
ENDCHAR

STARTCHAR onx1
ENCODING 1
SWIDTH 750 0
DWIDTH 6 0
BBX 6 8 0 -4
BITMAP
38
44
6C
44
6C
54
38
00
ENDCHAR

STARTCHAR onx2
ENCODING 2
SWIDTH 750 0
DWIDTH 6 0
BBX 6 8 0 -4
BITMAP
38
7C
54
7C
54
6C
38
00
ENDCHAR

STARTCHAR onx3
ENCODING 3
SWIDTH 750 0
DWIDTH 6 0
BBX 6 8 0 -4
BITMAP
00
28
6C
7C
7C
38
10
00
ENDCHAR

STARTCHAR onx4
ENCODING 4
SWIDTH 750 0
DWIDTH 6 0
BBX 6 8 0 -4
BITMAP
00
10
38
7C
38
10
00
00
ENDCHAR

STARTCHAR onx5
ENCODING 5
SWIDTH 750 0
DWIDTH 6 0
BBX 6 8 0 -4
BITMAP
30
30
EC
DC
30
30
78
00
ENDCHAR

STARTCHAR onx6
ENCODING 6
SWIDTH 750 0
DWIDTH 6 0
BBX 6 8 0 -4
BITMAP
10
38
7C
6C
28
10
38
00
ENDCHAR

STARTCHAR onx7
ENCODING 7
SWIDTH 750 0
DWIDTH 6 0
BBX 6 8 0 -4
BITMAP
00
00
00
30
30
00
00
00
ENDCHAR

STARTCHAR onx8
ENCODING 8
SWIDTH 750 0
DWIDTH 6 0
BBX 6 8 0 -4
BITMAP
FC
FC
FC
CC
CC
FC
FC
FC
ENDCHAR

STARTCHAR onx9
ENCODING 9
SWIDTH 750 0
DWIDTH 6 0
BBX 6 8 0 -4
BITMAP
00
00
30
48
48
30
00
00
ENDCHAR

STARTCHAR onx10
ENCODING 10
SWIDTH 750 0
DWIDTH 6 0
BBX 6 8 0 -4
BITMAP
FC
FC
CC
B4
B4
CC
FC
FC
ENDCHAR

STARTCHAR onx11
ENCODING 11
SWIDTH 750 0
DWIDTH 6 0
BBX 6 8 0 -4
BITMAP
00
1C
0C
74
90
90
60
00
ENDCHAR

STARTCHAR onx12
ENCODING 12
SWIDTH 750 0
DWIDTH 6 0
BBX 6 8 0 -4
BITMAP
38
44
44
38
10
38
10
00
ENDCHAR

STARTCHAR onx13
ENCODING 13
SWIDTH 750 0
DWIDTH 6 0
BBX 6 8 0 -4
BITMAP
10
18
14
10
10
70
70
00
ENDCHAR

STARTCHAR onx14
ENCODING 14
SWIDTH 750 0
DWIDTH 6 0
BBX 6 8 0 -4
BITMAP
30
28
34
2C
24
64
6C
0C
ENDCHAR

STARTCHAR onx15
ENCODING 15
SWIDTH 750 0
DWIDTH 6 0
BBX 6 8 0 -4
BITMAP
00
44
38
6C
38
44
00
00
ENDCHAR

STARTCHAR onx16
ENCODING 16
SWIDTH 750 0
DWIDTH 6 0
BBX 6 8 0 -4
BITMAP
00
C0
F0
FC
F0
C0
00
00
ENDCHAR

STARTCHAR onx17
ENCODING 17
SWIDTH 750 0
DWIDTH 6 0
BBX 6 8 0 -4
BITMAP
00
0C
3C
FC
3C
0C
00
00
ENDCHAR

STARTCHAR onx18
ENCODING 18
SWIDTH 750 0
DWIDTH 6 0
BBX 6 8 0 -4
BITMAP
10
38
10
10
10
38
10
00
ENDCHAR

STARTCHAR onx19
ENCODING 19
SWIDTH 750 0
DWIDTH 6 0
BBX 6 8 0 -4
BITMAP
28
28
28
28
28
00
28
00
ENDCHAR

STARTCHAR onx20
ENCODING 20
SWIDTH 750 0
DWIDTH 6 0
BBX 6 8 0 -4
BITMAP
00
7C
A8
A8
68
28
28
00
ENDCHAR

STARTCHAR onx21
ENCODING 21
SWIDTH 750 0
DWIDTH 6 0
BBX 6 8 0 -4
BITMAP
1C
30
38
64
64
38
18
70
ENDCHAR

STARTCHAR onx22
ENCODING 22
SWIDTH 750 0
DWIDTH 6 0
BBX 6 8 0 -4
BITMAP
00
00
7C
7C
7C
00
00
00
ENDCHAR

STARTCHAR onx23
ENCODING 23
SWIDTH 750 0
DWIDTH 6 0
BBX 6 8 0 -4
BITMAP
10
38
10
10
38
10
7C
00
ENDCHAR

STARTCHAR onx24
ENCODING 24
SWIDTH 750 0
DWIDTH 6 0
BBX 6 8 0 -4
BITMAP
10
38
7C
10
10
10
10
00
ENDCHAR

STARTCHAR onx25
ENCODING 25
SWIDTH 750 0
DWIDTH 6 0
BBX 6 8 0 -4
BITMAP
10
10
10
10
7C
38
10
00
ENDCHAR

STARTCHAR onx26
ENCODING 26
SWIDTH 750 0
DWIDTH 6 0
BBX 6 8 0 -4
BITMAP
00
10
18
FC
18
10
00
00
ENDCHAR

STARTCHAR onx27
ENCODING 27
SWIDTH 750 0
DWIDTH 6 0
BBX 6 8 0 -4
BITMAP
00
20
60
FC
60
20
00
00
ENDCHAR

STARTCHAR onx28
ENCODING 28
SWIDTH 750 0
DWIDTH 6 0
BBX 6 8 0 -4
BITMAP
40
40
40
7C
00
00
00
00
ENDCHAR

STARTCHAR onx29
ENCODING 29
SWIDTH 750 0
DWIDTH 6 0
BBX 6 8 0 -4
BITMAP
00
00
48
FC
48
00
00
00
ENDCHAR

STARTCHAR onx30
ENCODING 30
SWIDTH 750 0
DWIDTH 6 0
BBX 6 8 0 -4
BITMAP
00
00
10
10
38
38
7C
7C
ENDCHAR

STARTCHAR onx31
ENCODING 31
SWIDTH 750 0
DWIDTH 6 0
BBX 6 8 0 -4
BITMAP
7C
7C
38
38
10
10
00
00
ENDCHAR

STARTCHAR onx32
ENCODING 32
SWIDTH 750 0
DWIDTH 6 0
BBX 6 8 0 -4
BITMAP
00
00
00
00
00
00
00
00
ENDCHAR

STARTCHAR onx33
ENCODING 33
SWIDTH 750 0
DWIDTH 6 0
BBX 6 8 0 -4
BITMAP
18
18
18
18
18
00
18
00
ENDCHAR

STARTCHAR onx34
ENCODING 34
SWIDTH 750 0
DWIDTH 6 0
BBX 6 8 0 -4
BITMAP
6C
6C
24
48
00
00
00
00
ENDCHAR

STARTCHAR onx35
ENCODING 35
SWIDTH 750 0
DWIDTH 6 0
BBX 6 8 0 -4
BITMAP
00
28
7C
28
7C
28
00
00
ENDCHAR

STARTCHAR onx36
ENCODING 36
SWIDTH 750 0
DWIDTH 6 0
BBX 6 8 0 -4
BITMAP
10
3C
50
38
14
78
10
00
ENDCHAR

STARTCHAR onx37
ENCODING 37
SWIDTH 750 0
DWIDTH 6 0
BBX 6 8 0 -4
BITMAP
60
64
08
10
20
4C
0C
00
ENDCHAR

STARTCHAR onx38
ENCODING 38
SWIDTH 750 0
DWIDTH 6 0
BBX 6 8 0 -4
BITMAP
30
68
68
34
68
68
34
00
ENDCHAR

STARTCHAR onx39
ENCODING 39
SWIDTH 750 0
DWIDTH 6 0
BBX 6 8 0 -4
BITMAP
18
18
08
10
00
00
00
00
ENDCHAR

STARTCHAR onx40
ENCODING 40
SWIDTH 750 0
DWIDTH 6 0
BBX 6 8 0 -4
BITMAP
18
30
60
60
60
30
18
00
ENDCHAR

STARTCHAR onx41
ENCODING 41
SWIDTH 750 0
DWIDTH 6 0
BBX 6 8 0 -4
BITMAP
30
18
0C
0C
0C
18
30
00
ENDCHAR

STARTCHAR onx42
ENCODING 42
SWIDTH 750 0
DWIDTH 6 0
BBX 6 8 0 -4
BITMAP
00
28
10
7C
10
28
00
00
ENDCHAR

STARTCHAR onx43
ENCODING 43
SWIDTH 750 0
DWIDTH 6 0
BBX 6 8 0 -4
BITMAP
00
10
10
7C
10
10
00
00
ENDCHAR

STARTCHAR onx44
ENCODING 44
SWIDTH 750 0
DWIDTH 6 0
BBX 6 8 0 -4
BITMAP
00
00
00
00
18
18
08
10
ENDCHAR

STARTCHAR onx45
ENCODING 45
SWIDTH 750 0
DWIDTH 6 0
BBX 6 8 0 -4
BITMAP
00
00
00
7C
00
00
00
00
ENDCHAR

STARTCHAR onx46
ENCODING 46
SWIDTH 750 0
DWIDTH 6 0
BBX 6 8 0 -4
BITMAP
00
00
00
00
00
18
18
00
ENDCHAR

STARTCHAR onx47
ENCODING 47
SWIDTH 750 0
DWIDTH 6 0
BBX 6 8 0 -4
BITMAP
00
04
0C
18
30
60
40
00
ENDCHAR

STARTCHAR onx48
ENCODING 48
SWIDTH 750 0
DWIDTH 6 0
BBX 6 8 0 -4
BITMAP
38
64
64
6C
74
64
38
00
ENDCHAR

STARTCHAR onx49
ENCODING 49
SWIDTH 750 0
DWIDTH 6 0
BBX 6 8 0 -4
BITMAP
18
38
18
18
18
18
3C
00
ENDCHAR

STARTCHAR onx50
ENCODING 50
SWIDTH 750 0
DWIDTH 6 0
BBX 6 8 0 -4
BITMAP
38
4C
0C
18
30
60
7C
00
ENDCHAR

STARTCHAR onx51
ENCODING 51
SWIDTH 750 0
DWIDTH 6 0
BBX 6 8 0 -4
BITMAP
38
4C
0C
38
0C
4C
38
00
ENDCHAR

STARTCHAR onx52
ENCODING 52
SWIDTH 750 0
DWIDTH 6 0
BBX 6 8 0 -4
BITMAP
58
58
58
58
7C
18
18
00
ENDCHAR

STARTCHAR onx53
ENCODING 53
SWIDTH 750 0
DWIDTH 6 0
BBX 6 8 0 -4
BITMAP
7C
60
78
0C
0C
4C
38
00
ENDCHAR

STARTCHAR onx54
ENCODING 54
SWIDTH 750 0
DWIDTH 6 0
BBX 6 8 0 -4
BITMAP
38
64
60
78
64
64
38
00
ENDCHAR

STARTCHAR onx55
ENCODING 55
SWIDTH 750 0
DWIDTH 6 0
BBX 6 8 0 -4
BITMAP
7C
0C
18
30
30
30
30
00
ENDCHAR

STARTCHAR onx56
ENCODING 56
SWIDTH 750 0
DWIDTH 6 0
BBX 6 8 0 -4
BITMAP
38
64
64
38
64
64
38
00
ENDCHAR

STARTCHAR onx57
ENCODING 57
SWIDTH 750 0
DWIDTH 6 0
BBX 6 8 0 -4
BITMAP
38
4C
4C
3C
0C
4C
38
00
ENDCHAR

STARTCHAR onx58
ENCODING 58
SWIDTH 750 0
DWIDTH 6 0
BBX 6 8 0 -4
BITMAP
00
18
18
00
18
18
00
00
ENDCHAR

STARTCHAR onx59
ENCODING 59
SWIDTH 750 0
DWIDTH 6 0
BBX 6 8 0 -4
BITMAP
00
18
18
00
18
18
08
10
ENDCHAR

STARTCHAR onx60
ENCODING 60
SWIDTH 750 0
DWIDTH 6 0
BBX 6 8 0 -4
BITMAP
0C
18
30
60
30
18
0C
00
ENDCHAR

STARTCHAR onx61
ENCODING 61
SWIDTH 750 0
DWIDTH 6 0
BBX 6 8 0 -4
BITMAP
00
00
7C
00
7C
00
00
00
ENDCHAR

STARTCHAR onx62
ENCODING 62
SWIDTH 750 0
DWIDTH 6 0
BBX 6 8 0 -4
BITMAP
60
30
18
0C
18
30
60
00
ENDCHAR

STARTCHAR onx63
ENCODING 63
SWIDTH 750 0
DWIDTH 6 0
BBX 6 8 0 -4
BITMAP
38
4C
0C
18
10
00
10
00
ENDCHAR

STARTCHAR onx64
ENCODING 64
SWIDTH 750 0
DWIDTH 6 0
BBX 6 8 0 -4
BITMAP
38
44
5C
54
5C
40
3C
00
ENDCHAR

STARTCHAR onx65
ENCODING 65
SWIDTH 750 0
DWIDTH 6 0
BBX 6 8 0 -4
BITMAP
38
64
64
7C
64
64
64
00
ENDCHAR

STARTCHAR onx66
ENCODING 66
SWIDTH 750 0
DWIDTH 6 0
BBX 6 8 0 -4
BITMAP
78
64
64
78
64
64
78
00
ENDCHAR

STARTCHAR onx67
ENCODING 67
SWIDTH 750 0
DWIDTH 6 0
BBX 6 8 0 -4
BITMAP
38
64
60
60
60
64
38
00
ENDCHAR

STARTCHAR onx68
ENCODING 68
SWIDTH 750 0
DWIDTH 6 0
BBX 6 8 0 -4
BITMAP
78
64
64
64
64
64
78
00
ENDCHAR

STARTCHAR onx69
ENCODING 69
SWIDTH 750 0
DWIDTH 6 0
BBX 6 8 0 -4
BITMAP
7C
60
60
78
60
60
7C
00
ENDCHAR

STARTCHAR onx70
ENCODING 70
SWIDTH 750 0
DWIDTH 6 0
BBX 6 8 0 -4
BITMAP
7C
60
60
78
60
60
60
00
ENDCHAR

STARTCHAR onx71
ENCODING 71
SWIDTH 750 0
DWIDTH 6 0
BBX 6 8 0 -4
BITMAP
38
64
60
6C
64
64
3C
00
ENDCHAR

STARTCHAR onx72
ENCODING 72
SWIDTH 750 0
DWIDTH 6 0
BBX 6 8 0 -4
BITMAP
64
64
64
7C
64
64
64
00
ENDCHAR

STARTCHAR onx73
ENCODING 73
SWIDTH 750 0
DWIDTH 6 0
BBX 6 8 0 -4
BITMAP
3C
18
18
18
18
18
3C
00
ENDCHAR

STARTCHAR onx74
ENCODING 74
SWIDTH 750 0
DWIDTH 6 0
BBX 6 8 0 -4
BITMAP
7C
18
18
18
58
58
30
00
ENDCHAR

STARTCHAR onx75
ENCODING 75
SWIDTH 750 0
DWIDTH 6 0
BBX 6 8 0 -4
BITMAP
64
68
70
60
70
68
64
00
ENDCHAR

STARTCHAR onx76
ENCODING 76
SWIDTH 750 0
DWIDTH 6 0
BBX 6 8 0 -4
BITMAP
60
60
60
60
60
60
7C
00
ENDCHAR

STARTCHAR onx77
ENCODING 77
SWIDTH 750 0
DWIDTH 6 0
BBX 6 8 0 -4
BITMAP
44
6C
7C
54
54
44
44
00
ENDCHAR

STARTCHAR onx78
ENCODING 78
SWIDTH 750 0
DWIDTH 6 0
BBX 6 8 0 -4
BITMAP
64
64
74
7C
6C
64
64
00
ENDCHAR

STARTCHAR onx79
ENCODING 79
SWIDTH 750 0
DWIDTH 6 0
BBX 6 8 0 -4
BITMAP
38
64
64
64
64
64
38
00
ENDCHAR

STARTCHAR onx80
ENCODING 80
SWIDTH 750 0
DWIDTH 6 0
BBX 6 8 0 -4
BITMAP
78
64
64
78
60
60
60
00
ENDCHAR

STARTCHAR onx81
ENCODING 81
SWIDTH 750 0
DWIDTH 6 0
BBX 6 8 0 -4
BITMAP
38
64
64
64
74
68
34
00
ENDCHAR

STARTCHAR onx82
ENCODING 82
SWIDTH 750 0
DWIDTH 6 0
BBX 6 8 0 -4
BITMAP
78
64
64
78
6C
64
64
00
ENDCHAR

STARTCHAR onx83
ENCODING 83
SWIDTH 750 0
DWIDTH 6 0
BBX 6 8 0 -4
BITMAP
38
64
60
38
0C
4C
38
00
ENDCHAR

STARTCHAR onx84
ENCODING 84
SWIDTH 750 0
DWIDTH 6 0
BBX 6 8 0 -4
BITMAP
7C
30
30
30
30
30
30
00
ENDCHAR

STARTCHAR onx85
ENCODING 85
SWIDTH 750 0
DWIDTH 6 0
BBX 6 8 0 -4
BITMAP
64
64
64
64
64
64
38
00
ENDCHAR

STARTCHAR onx86
ENCODING 86
SWIDTH 750 0
DWIDTH 6 0
BBX 6 8 0 -4
BITMAP
64
64
64
64
64
28
10
00
ENDCHAR

STARTCHAR onx87
ENCODING 87
SWIDTH 750 0
DWIDTH 6 0
BBX 6 8 0 -4
BITMAP
44
44
54
54
7C
6C
44
00
ENDCHAR

STARTCHAR onx88
ENCODING 88
SWIDTH 750 0
DWIDTH 6 0
BBX 6 8 0 -4
BITMAP
64
6C
38
10
38
6C
4C
00
ENDCHAR

STARTCHAR onx89
ENCODING 89
SWIDTH 750 0
DWIDTH 6 0
BBX 6 8 0 -4
BITMAP
64
64
2C
38
18
18
18
00
ENDCHAR

STARTCHAR onx90
ENCODING 90
SWIDTH 750 0
DWIDTH 6 0
BBX 6 8 0 -4
BITMAP
7C
0C
1C
38
70
60
7C
00
ENDCHAR

STARTCHAR onx91
ENCODING 91
SWIDTH 750 0
DWIDTH 6 0
BBX 6 8 0 -4
BITMAP
78
60
60
60
60
60
78
00
ENDCHAR

STARTCHAR onx92
ENCODING 92
SWIDTH 750 0
DWIDTH 6 0
BBX 6 8 0 -4
BITMAP
00
40
60
30
18
0C
04
00
ENDCHAR

STARTCHAR onx93
ENCODING 93
SWIDTH 750 0
DWIDTH 6 0
BBX 6 8 0 -4
BITMAP
3C
0C
0C
0C
0C
0C
3C
00
ENDCHAR

STARTCHAR onx94
ENCODING 94
SWIDTH 750 0
DWIDTH 6 0
BBX 6 8 0 -4
BITMAP
10
38
6C
44
00
00
00
00
ENDCHAR

STARTCHAR onx95
ENCODING 95
SWIDTH 750 0
DWIDTH 6 0
BBX 6 8 0 -4
BITMAP
00
00
00
00
00
00
FC
00
ENDCHAR

STARTCHAR onx96
ENCODING 96
SWIDTH 750 0
DWIDTH 6 0
BBX 6 8 0 -4
BITMAP
10
20
30
30
00
00
00
00
ENDCHAR

STARTCHAR onx97
ENCODING 97
SWIDTH 750 0
DWIDTH 6 0
BBX 6 8 0 -4
BITMAP
00
00
38
0C
3C
4C
3C
00
ENDCHAR

STARTCHAR onx98
ENCODING 98
SWIDTH 750 0
DWIDTH 6 0
BBX 6 8 0 -4
BITMAP
60
60
78
64
64
64
78
00
ENDCHAR

STARTCHAR onx99
ENCODING 99
SWIDTH 750 0
DWIDTH 6 0
BBX 6 8 0 -4
BITMAP
00
00
38
64
60
60
3C
00
ENDCHAR

STARTCHAR onx100
ENCODING 100
SWIDTH 750 0
DWIDTH 6 0
BBX 6 8 0 -4
BITMAP
0C
0C
3C
4C
4C
4C
3C
00
ENDCHAR

STARTCHAR onx101
ENCODING 101
SWIDTH 750 0
DWIDTH 6 0
BBX 6 8 0 -4
BITMAP
00
00
38
64
7C
60
3C
00
ENDCHAR

STARTCHAR onx102
ENCODING 102
SWIDTH 750 0
DWIDTH 6 0
BBX 6 8 0 -4
BITMAP
1C
30
7C
30
30
30
78
00
ENDCHAR

STARTCHAR onx103
ENCODING 103
SWIDTH 750 0
DWIDTH 6 0
BBX 6 8 0 -4
BITMAP
00
00
3C
4C
4C
3C
0C
78
ENDCHAR

STARTCHAR onx104
ENCODING 104
SWIDTH 750 0
DWIDTH 6 0
BBX 6 8 0 -4
BITMAP
60
60
78
64
64
64
64
00
ENDCHAR

STARTCHAR onx105
ENCODING 105
SWIDTH 750 0
DWIDTH 6 0
BBX 6 8 0 -4
BITMAP
18
00
38
18
18
18
3C
00
ENDCHAR

STARTCHAR onx106
ENCODING 106
SWIDTH 750 0
DWIDTH 6 0
BBX 6 8 0 -4
BITMAP
0C
00
1C
0C
0C
0C
4C
38
ENDCHAR

STARTCHAR onx107
ENCODING 107
SWIDTH 750 0
DWIDTH 6 0
BBX 6 8 0 -4
BITMAP
60
60
64
68
70
68
64
00
ENDCHAR

STARTCHAR onx108
ENCODING 108
SWIDTH 750 0
DWIDTH 6 0
BBX 6 8 0 -4
BITMAP
38
18
18
18
18
18
3C
00
ENDCHAR

STARTCHAR onx109
ENCODING 109
SWIDTH 750 0
DWIDTH 6 0
BBX 6 8 0 -4
BITMAP
00
00
44
6C
7C
54
44
00
ENDCHAR

STARTCHAR onx110
ENCODING 110
SWIDTH 750 0
DWIDTH 6 0
BBX 6 8 0 -4
BITMAP
00
00
78
64
64
64
64
00
ENDCHAR

STARTCHAR onx111
ENCODING 111
SWIDTH 750 0
DWIDTH 6 0
BBX 6 8 0 -4
BITMAP
00
00
38
64
64
64
38
00
ENDCHAR

STARTCHAR onx112
ENCODING 112
SWIDTH 750 0
DWIDTH 6 0
BBX 6 8 0 -4
BITMAP
00
00
78
64
64
78
60
60
ENDCHAR

STARTCHAR onx113
ENCODING 113
SWIDTH 750 0
DWIDTH 6 0
BBX 6 8 0 -4
BITMAP
00
00
3C
4C
4C
3C
0C
0C
ENDCHAR

STARTCHAR onx114
ENCODING 114
SWIDTH 750 0
DWIDTH 6 0
BBX 6 8 0 -4
BITMAP
00
00
78
64
60
60
60
00
ENDCHAR

STARTCHAR onx115
ENCODING 115
SWIDTH 750 0
DWIDTH 6 0
BBX 6 8 0 -4
BITMAP
00
00
3C
60
7C
0C
78
00
ENDCHAR

STARTCHAR onx116
ENCODING 116
SWIDTH 750 0
DWIDTH 6 0
BBX 6 8 0 -4
BITMAP
30
30
7C
30
30
34
18
00
ENDCHAR

STARTCHAR onx117
ENCODING 117
SWIDTH 750 0
DWIDTH 6 0
BBX 6 8 0 -4
BITMAP
00
00
4C
4C
4C
4C
3C
00
ENDCHAR

STARTCHAR onx118
ENCODING 118
SWIDTH 750 0
DWIDTH 6 0
BBX 6 8 0 -4
BITMAP
00
00
64
64
64
28
10
00
ENDCHAR

STARTCHAR onx119
ENCODING 119
SWIDTH 750 0
DWIDTH 6 0
BBX 6 8 0 -4
BITMAP
00
00
44
54
7C
6C
44
00
ENDCHAR

STARTCHAR onx120
ENCODING 120
SWIDTH 750 0
DWIDTH 6 0
BBX 6 8 0 -4
BITMAP
00
00
64
38
10
38
4C
00
ENDCHAR

STARTCHAR onx121
ENCODING 121
SWIDTH 750 0
DWIDTH 6 0
BBX 6 8 0 -4
BITMAP
00
00
4C
4C
4C
3C
0C
78
ENDCHAR

STARTCHAR onx122
ENCODING 122
SWIDTH 750 0
DWIDTH 6 0
BBX 6 8 0 -4
BITMAP
00
00
7C
18
30
60
7C
00
ENDCHAR

STARTCHAR onx123
ENCODING 123
SWIDTH 750 0
DWIDTH 6 0
BBX 6 8 0 -4
BITMAP
1C
30
30
60
30
30
1C
00
ENDCHAR

STARTCHAR onx124
ENCODING 124
SWIDTH 750 0
DWIDTH 6 0
BBX 6 8 0 -4
BITMAP
18
18
18
18
18
18
18
00
ENDCHAR

STARTCHAR onx125
ENCODING 125
SWIDTH 750 0
DWIDTH 6 0
BBX 6 8 0 -4
BITMAP
70
18
18
0C
18
18
70
00
ENDCHAR

STARTCHAR onx126
ENCODING 126
SWIDTH 750 0
DWIDTH 6 0
BBX 6 8 0 -4
BITMAP
00
20
74
5C
08
00
00
00
ENDCHAR

STARTCHAR onx127
ENCODING 127
SWIDTH 750 0
DWIDTH 6 0
BBX 6 8 0 -4
BITMAP
04
0C
1C
2C
4C
8C
FC
00
ENDCHAR

STARTCHAR onx128
ENCODING 128
SWIDTH 750 0
DWIDTH 6 0
BBX 6 8 0 -4
BITMAP
38
64
60
60
64
38
08
38
ENDCHAR

STARTCHAR onx129
ENCODING 129
SWIDTH 750 0
DWIDTH 6 0
BBX 6 8 0 -4
BITMAP
28
00
4C
4C
4C
4C
3C
00
ENDCHAR

STARTCHAR onx130
ENCODING 130
SWIDTH 750 0
DWIDTH 6 0
BBX 6 8 0 -4
BITMAP
08
10
38
64
7C
60
3C
00
ENDCHAR

STARTCHAR onx131
ENCODING 131
SWIDTH 750 0
DWIDTH 6 0
BBX 6 8 0 -4
BITMAP
10
28
38
0C
3C
4C
3C
00
ENDCHAR

STARTCHAR onx132
ENCODING 132
SWIDTH 750 0
DWIDTH 6 0
BBX 6 8 0 -4
BITMAP
28
00
38
0C
3C
4C
3C
00
ENDCHAR

STARTCHAR onx133
ENCODING 133
SWIDTH 750 0
DWIDTH 6 0
BBX 6 8 0 -4
BITMAP
20
10
38
0C
3C
4C
3C
00
ENDCHAR

STARTCHAR onx134
ENCODING 134
SWIDTH 750 0
DWIDTH 6 0
BBX 6 8 0 -4
BITMAP
18
18
38
0C
3C
4C
3C
00
ENDCHAR

STARTCHAR onx135
ENCODING 135
SWIDTH 750 0
DWIDTH 6 0
BBX 6 8 0 -4
BITMAP
00
00
38
64
60
3C
08
38
ENDCHAR

STARTCHAR onx136
ENCODING 136
SWIDTH 750 0
DWIDTH 6 0
BBX 6 8 0 -4
BITMAP
10
28
38
64
7C
60
3C
00
ENDCHAR

STARTCHAR onx137
ENCODING 137
SWIDTH 750 0
DWIDTH 6 0
BBX 6 8 0 -4
BITMAP
28
00
38
64
7C
60
3C
00
ENDCHAR

STARTCHAR onx138
ENCODING 138
SWIDTH 750 0
DWIDTH 6 0
BBX 6 8 0 -4
BITMAP
20
10
38
64
7C
60
3C
00
ENDCHAR

STARTCHAR onx139
ENCODING 139
SWIDTH 750 0
DWIDTH 6 0
BBX 6 8 0 -4
BITMAP
28
00
38
18
18
18
3C
00
ENDCHAR

STARTCHAR onx140
ENCODING 140
SWIDTH 750 0
DWIDTH 6 0
BBX 6 8 0 -4
BITMAP
08
14
38
18
18
18
3C
00
ENDCHAR

STARTCHAR onx141
ENCODING 141
SWIDTH 750 0
DWIDTH 6 0
BBX 6 8 0 -4
BITMAP
20
10
38
18
18
18
3C
00
ENDCHAR

STARTCHAR onx142
ENCODING 142
SWIDTH 750 0
DWIDTH 6 0
BBX 6 8 0 -4
BITMAP
28
38
44
44
7C
44
44
00
ENDCHAR

STARTCHAR onx143
ENCODING 143
SWIDTH 750 0
DWIDTH 6 0
BBX 6 8 0 -4
BITMAP
18
18
24
44
7C
44
44
00
ENDCHAR

STARTCHAR onx144
ENCODING 144
SWIDTH 750 0
DWIDTH 6 0
BBX 6 8 0 -4
BITMAP
08
10
7C
40
78
40
7C
00
ENDCHAR

STARTCHAR onx145
ENCODING 145
SWIDTH 750 0
DWIDTH 6 0
BBX 6 8 0 -4
BITMAP
00
00
68
14
7C
50
3C
00
ENDCHAR

STARTCHAR onx146
ENCODING 146
SWIDTH 750 0
DWIDTH 6 0
BBX 6 8 0 -4
BITMAP
3C
50
50
7C
50
50
5C
00
ENDCHAR

STARTCHAR onx147
ENCODING 147
SWIDTH 750 0
DWIDTH 6 0
BBX 6 8 0 -4
BITMAP
10
28
38
64
64
64
38
00
ENDCHAR

STARTCHAR onx148
ENCODING 148
SWIDTH 750 0
DWIDTH 6 0
BBX 6 8 0 -4
BITMAP
28
00
38
64
64
64
38
00
ENDCHAR

STARTCHAR onx149
ENCODING 149
SWIDTH 750 0
DWIDTH 6 0
BBX 6 8 0 -4
BITMAP
20
10
38
64
64
64
38
00
ENDCHAR

STARTCHAR onx150
ENCODING 150
SWIDTH 750 0
DWIDTH 6 0
BBX 6 8 0 -4
BITMAP
10
28
4C
4C
4C
4C
3C
00
ENDCHAR

STARTCHAR onx151
ENCODING 151
SWIDTH 750 0
DWIDTH 6 0
BBX 6 8 0 -4
BITMAP
20
10
4C
4C
4C
4C
3C
00
ENDCHAR

STARTCHAR onx152
ENCODING 152
SWIDTH 750 0
DWIDTH 6 0
BBX 6 8 0 -4
BITMAP
28
00
4C
4C
2C
1C
4C
38
ENDCHAR

STARTCHAR onx153
ENCODING 153
SWIDTH 750 0
DWIDTH 6 0
BBX 6 8 0 -4
BITMAP
28
38
44
44
44
44
38
00
ENDCHAR

STARTCHAR onx154
ENCODING 154
SWIDTH 750 0
DWIDTH 6 0
BBX 6 8 0 -4
BITMAP
28
44
44
44
44
44
38
00
ENDCHAR

STARTCHAR onx155
ENCODING 155
SWIDTH 750 0
DWIDTH 6 0
BBX 6 8 0 -4
BITMAP
00
10
38
54
50
3C
10
00
ENDCHAR

STARTCHAR onx156
ENCODING 156
SWIDTH 750 0
DWIDTH 6 0
BBX 6 8 0 -4
BITMAP
18
34
30
78
30
30
7C
00
ENDCHAR

STARTCHAR onx157
ENCODING 157
SWIDTH 750 0
DWIDTH 6 0
BBX 6 8 0 -4
BITMAP
44
28
10
7C
7C
10
10
00
ENDCHAR

STARTCHAR onx158
ENCODING 158
SWIDTH 750 0
DWIDTH 6 0
BBX 6 8 0 -4
BITMAP
70
50
70
48
5C
08
08
00
ENDCHAR

STARTCHAR onx159
ENCODING 159
SWIDTH 750 0
DWIDTH 6 0
BBX 6 8 0 -4
BITMAP
18
34
30
78
30
B0
60
00
ENDCHAR

STARTCHAR onx160
ENCODING 160
SWIDTH 750 0
DWIDTH 6 0
BBX 6 8 0 -4
BITMAP
08
10
38
0C
3C
4C
3C
00
ENDCHAR

STARTCHAR onx161
ENCODING 161
SWIDTH 750 0
DWIDTH 6 0
BBX 6 8 0 -4
BITMAP
08
10
38
18
18
18
3C
00
ENDCHAR

STARTCHAR onx162
ENCODING 162
SWIDTH 750 0
DWIDTH 6 0
BBX 6 8 0 -4
BITMAP
08
10
38
64
64
64
38
00
ENDCHAR

STARTCHAR onx163
ENCODING 163
SWIDTH 750 0
DWIDTH 6 0
BBX 6 8 0 -4
BITMAP
08
10
4C
4C
4C
4C
3C
00
ENDCHAR

STARTCHAR onx164
ENCODING 164
SWIDTH 750 0
DWIDTH 6 0
BBX 6 8 0 -4
BITMAP
14
28
78
64
64
64
64
00
ENDCHAR

STARTCHAR onx165
ENCODING 165
SWIDTH 750 0
DWIDTH 6 0
BBX 6 8 0 -4
BITMAP
14
28
44
64
54
4C
44
00
ENDCHAR

STARTCHAR onx166
ENCODING 166
SWIDTH 750 0
DWIDTH 6 0
BBX 6 8 0 -4
BITMAP
38
48
48
34
00
7C
00
00
ENDCHAR

STARTCHAR onx167
ENCODING 167
SWIDTH 750 0
DWIDTH 6 0
BBX 6 8 0 -4
BITMAP
18
24
24
18
00
3C
00
00
ENDCHAR

STARTCHAR onx168
ENCODING 168
SWIDTH 750 0
DWIDTH 6 0
BBX 6 8 0 -4
BITMAP
10
00
10
30
60
64
38
00
ENDCHAR

STARTCHAR onx169
ENCODING 169
SWIDTH 750 0
DWIDTH 6 0
BBX 6 8 0 -4
BITMAP
00
00
00
7C
40
40
40
00
ENDCHAR

STARTCHAR onx170
ENCODING 170
SWIDTH 750 0
DWIDTH 6 0
BBX 6 8 0 -4
BITMAP
00
00
00
7C
04
04
04
00
ENDCHAR

STARTCHAR onx171
ENCODING 171
SWIDTH 750 0
DWIDTH 6 0
BBX 6 8 0 -4
BITMAP
40
48
50
38
44
08
1C
00
ENDCHAR

STARTCHAR onx172
ENCODING 172
SWIDTH 750 0
DWIDTH 6 0
BBX 6 8 0 -4
BITMAP
40
48
50
20
54
1C
04
00
ENDCHAR

STARTCHAR onx173
ENCODING 173
SWIDTH 750 0
DWIDTH 6 0
BBX 6 8 0 -4
BITMAP
18
00
18
18
18
18
18
00
ENDCHAR

STARTCHAR onx174
ENCODING 174
SWIDTH 750 0
DWIDTH 6 0
BBX 6 8 0 -4
BITMAP
00
14
28
50
28
14
00
00
ENDCHAR

STARTCHAR onx175
ENCODING 175
SWIDTH 750 0
DWIDTH 6 0
BBX 6 8 0 -4
BITMAP
00
50
28
14
28
50
00
00
ENDCHAR

STARTCHAR onx176
ENCODING 176
SWIDTH 750 0
DWIDTH 6 0
BBX 6 8 0 -4
BITMAP
90
24
48
90
24
48
90
24
ENDCHAR

STARTCHAR onx177
ENCODING 177
SWIDTH 750 0
DWIDTH 6 0
BBX 6 8 0 -4
BITMAP
A8
54
A8
54
A8
54
A8
54
ENDCHAR

STARTCHAR onx178
ENCODING 178
SWIDTH 750 0
DWIDTH 6 0
BBX 6 8 0 -4
BITMAP
38
38
38
38
38
38
38
38
ENDCHAR

STARTCHAR onx179
ENCODING 179
SWIDTH 750 0
DWIDTH 6 0
BBX 6 8 0 -4
BITMAP
20
20
20
20
20
20
20
20
ENDCHAR

STARTCHAR onx180
ENCODING 180
SWIDTH 750 0
DWIDTH 6 0
BBX 6 8 0 -4
BITMAP
30
30
30
F0
F0
30
30
30
ENDCHAR

STARTCHAR onx181
ENCODING 181
SWIDTH 750 0
DWIDTH 6 0
BBX 6 8 0 -4
BITMAP
38
38
F8
38
38
F8
38
38
ENDCHAR

STARTCHAR onx182
ENCODING 182
SWIDTH 750 0
DWIDTH 6 0
BBX 6 8 0 -4
BITMAP
48
48
48
C8
C8
48
48
48
ENDCHAR

STARTCHAR onx183
ENCODING 183
SWIDTH 750 0
DWIDTH 6 0
BBX 6 8 0 -4
BITMAP
00
00
00
F8
F8
48
48
48
ENDCHAR

STARTCHAR onx184
ENCODING 184
SWIDTH 750 0
DWIDTH 6 0
BBX 6 8 0 -4
BITMAP
00
00
F0
30
30
F0
30
30
ENDCHAR

STARTCHAR onx185
ENCODING 185
SWIDTH 750 0
DWIDTH 6 0
BBX 6 8 0 -4
BITMAP
48
48
C8
08
08
C8
48
48
ENDCHAR

STARTCHAR onx186
ENCODING 186
SWIDTH 750 0
DWIDTH 6 0
BBX 6 8 0 -4
BITMAP
48
48
48
48
48
48
48
48
ENDCHAR

STARTCHAR onx187
ENCODING 187
SWIDTH 750 0
DWIDTH 6 0
BBX 6 8 0 -4
BITMAP
00
00
F8
08
08
C8
48
48
ENDCHAR

STARTCHAR onx188
ENCODING 188
SWIDTH 750 0
DWIDTH 6 0
BBX 6 8 0 -4
BITMAP
48
48
C8
08
08
F8
00
00
ENDCHAR

STARTCHAR onx189
ENCODING 189
SWIDTH 750 0
DWIDTH 6 0
BBX 6 8 0 -4
BITMAP
48
48
48
F8
F8
00
00
00
ENDCHAR

STARTCHAR onx190
ENCODING 190
SWIDTH 750 0
DWIDTH 6 0
BBX 6 8 0 -4
BITMAP
30
30
F0
30
30
F0
00
00
ENDCHAR

STARTCHAR onx191
ENCODING 191
SWIDTH 750 0
DWIDTH 6 0
BBX 6 8 0 -4
BITMAP
00
00
00
C0
60
30
38
38
ENDCHAR

STARTCHAR onx192
ENCODING 192
SWIDTH 750 0
DWIDTH 6 0
BBX 6 8 0 -4
BITMAP
20
20
30
3C
1C
0C
00
00
ENDCHAR

STARTCHAR onx193
ENCODING 193
SWIDTH 750 0
DWIDTH 6 0
BBX 6 8 0 -4
BITMAP
30
30
30
FC
FC
00
00
00
ENDCHAR

STARTCHAR onx194
ENCODING 194
SWIDTH 750 0
DWIDTH 6 0
BBX 6 8 0 -4
BITMAP
00
00
00
FC
FC
30
30
30
ENDCHAR

STARTCHAR onx195
ENCODING 195
SWIDTH 750 0
DWIDTH 6 0
BBX 6 8 0 -4
BITMAP
30
30
30
3C
3C
30
30
30
ENDCHAR

STARTCHAR onx196
ENCODING 196
SWIDTH 750 0
DWIDTH 6 0
BBX 6 8 0 -4
BITMAP
00
00
00
FC
00
00
00
00
ENDCHAR

STARTCHAR onx197
ENCODING 197
SWIDTH 750 0
DWIDTH 6 0
BBX 6 8 0 -4
BITMAP
00
00
00
FC
FC
FC
00
00
ENDCHAR

STARTCHAR onx198
ENCODING 198
SWIDTH 750 0
DWIDTH 6 0
BBX 6 8 0 -4
BITMAP
20
20
3C
20
20
3C
20
20
ENDCHAR

STARTCHAR onx199
ENCODING 199
SWIDTH 750 0
DWIDTH 6 0
BBX 6 8 0 -4
BITMAP
48
48
48
4C
4C
48
48
48
ENDCHAR

STARTCHAR onx200
ENCODING 200
SWIDTH 750 0
DWIDTH 6 0
BBX 6 8 0 -4
BITMAP
48
48
4C
40
40
7C
00
00
ENDCHAR

STARTCHAR onx201
ENCODING 201
SWIDTH 750 0
DWIDTH 6 0
BBX 6 8 0 -4
BITMAP
00
00
7C
40
40
4C
48
48
ENDCHAR

STARTCHAR onx202
ENCODING 202
SWIDTH 750 0
DWIDTH 6 0
BBX 6 8 0 -4
BITMAP
48
48
CC
00
00
FC
00
00
ENDCHAR

STARTCHAR onx203
ENCODING 203
SWIDTH 750 0
DWIDTH 6 0
BBX 6 8 0 -4
BITMAP
00
00
FC
00
00
CC
48
48
ENDCHAR

STARTCHAR onx204
ENCODING 204
SWIDTH 750 0
DWIDTH 6 0
BBX 6 8 0 -4
BITMAP
48
48
4C
40
40
4C
48
48
ENDCHAR

STARTCHAR onx205
ENCODING 205
SWIDTH 750 0
DWIDTH 6 0
BBX 6 8 0 -4
BITMAP
00
00
FC
00
00
FC
00
00
ENDCHAR

STARTCHAR onx206
ENCODING 206
SWIDTH 750 0
DWIDTH 6 0
BBX 6 8 0 -4
BITMAP
48
48
CC
00
00
CC
48
48
ENDCHAR

STARTCHAR onx207
ENCODING 207
SWIDTH 750 0
DWIDTH 6 0
BBX 6 8 0 -4
BITMAP
30
30
FC
00
00
FC
00
00
ENDCHAR

STARTCHAR onx208
ENCODING 208
SWIDTH 750 0
DWIDTH 6 0
BBX 6 8 0 -4
BITMAP
48
48
48
FC
FC
00
00
00
ENDCHAR

STARTCHAR onx209
ENCODING 209
SWIDTH 750 0
DWIDTH 6 0
BBX 6 8 0 -4
BITMAP
00
00
FC
00
00
FC
30
30
ENDCHAR

STARTCHAR onx210
ENCODING 210
SWIDTH 750 0
DWIDTH 6 0
BBX 6 8 0 -4
BITMAP
00
00
00
FC
FC
48
48
48
ENDCHAR

STARTCHAR onx211
ENCODING 211
SWIDTH 750 0
DWIDTH 6 0
BBX 6 8 0 -4
BITMAP
48
48
48
7C
7C
00
00
00
ENDCHAR

STARTCHAR onx212
ENCODING 212
SWIDTH 750 0
DWIDTH 6 0
BBX 6 8 0 -4
BITMAP
30
30
3C
30
30
3C
00
00
ENDCHAR

STARTCHAR onx213
ENCODING 213
SWIDTH 750 0
DWIDTH 6 0
BBX 6 8 0 -4
BITMAP
00
00
3C
30
30
3C
30
30
ENDCHAR

STARTCHAR onx214
ENCODING 214
SWIDTH 750 0
DWIDTH 6 0
BBX 6 8 0 -4
BITMAP
00
00
00
7C
7C
48
48
48
ENDCHAR

STARTCHAR onx215
ENCODING 215
SWIDTH 750 0
DWIDTH 6 0
BBX 6 8 0 -4
BITMAP
48
48
48
FC
FC
48
48
48
ENDCHAR

STARTCHAR onx216
ENCODING 216
SWIDTH 750 0
DWIDTH 6 0
BBX 6 8 0 -4
BITMAP
30
30
FC
30
30
FC
30
30
ENDCHAR

STARTCHAR onx217
ENCODING 217
SWIDTH 750 0
DWIDTH 6 0
BBX 6 8 0 -4
BITMAP
38
38
70
F0
E0
80
00
00
ENDCHAR

STARTCHAR onx218
ENCODING 218
SWIDTH 750 0
DWIDTH 6 0
BBX 6 8 0 -4
BITMAP
00
00
00
0C
18
30
20
20
ENDCHAR

STARTCHAR onx219
ENCODING 219
SWIDTH 750 0
DWIDTH 6 0
BBX 6 8 0 -4
BITMAP
FC
FC
FC
FC
FC
FC
FC
FC
ENDCHAR

STARTCHAR onx220
ENCODING 220
SWIDTH 750 0
DWIDTH 6 0
BBX 6 8 0 -4
BITMAP
00
00
00
00
FC
FC
FC
FC
ENDCHAR

STARTCHAR onx221
ENCODING 221
SWIDTH 750 0
DWIDTH 6 0
BBX 6 8 0 -4
BITMAP
E0
E0
E0
E0
E0
E0
E0
E0
ENDCHAR

STARTCHAR onx222
ENCODING 222
SWIDTH 750 0
DWIDTH 6 0
BBX 6 8 0 -4
BITMAP
1C
1C
1C
1C
1C
1C
1C
1C
ENDCHAR

STARTCHAR onx223
ENCODING 223
SWIDTH 750 0
DWIDTH 6 0
BBX 6 8 0 -4
BITMAP
FC
FC
FC
FC
00
00
00
00
ENDCHAR

STARTCHAR onx224
ENCODING 224
SWIDTH 750 0
DWIDTH 6 0
BBX 6 8 0 -4
BITMAP
00
00
34
48
48
34
00
00
ENDCHAR

STARTCHAR onx225
ENCODING 225
SWIDTH 750 0
DWIDTH 6 0
BBX 6 8 0 -4
BITMAP
18
24
44
58
44
64
58
40
ENDCHAR

STARTCHAR onx226
ENCODING 226
SWIDTH 750 0
DWIDTH 6 0
BBX 6 8 0 -4
BITMAP
7C
44
40
40
40
40
40
00
ENDCHAR

STARTCHAR onx227
ENCODING 227
SWIDTH 750 0
DWIDTH 6 0
BBX 6 8 0 -4
BITMAP
00
00
7C
28
28
28
28
00
ENDCHAR

STARTCHAR onx228
ENCODING 228
SWIDTH 750 0
DWIDTH 6 0
BBX 6 8 0 -4
BITMAP
7C
44
20
10
20
44
7C
00
ENDCHAR

STARTCHAR onx229
ENCODING 229
SWIDTH 750 0
DWIDTH 6 0
BBX 6 8 0 -4
BITMAP
00
00
3C
48
44
44
38
00
ENDCHAR

STARTCHAR onx230
ENCODING 230
SWIDTH 750 0
DWIDTH 6 0
BBX 6 8 0 -4
BITMAP
00
00
24
24
24
38
20
40
ENDCHAR

STARTCHAR onx231
ENCODING 231
SWIDTH 750 0
DWIDTH 6 0
BBX 6 8 0 -4
BITMAP
00
04
38
50
10
10
10
00
ENDCHAR

STARTCHAR onx232
ENCODING 232
SWIDTH 750 0
DWIDTH 6 0
BBX 6 8 0 -4
BITMAP
10
10
10
10
10
7C
38
10
ENDCHAR

STARTCHAR onx233
ENCODING 233
SWIDTH 750 0
DWIDTH 6 0
BBX 6 8 0 -4
BITMAP
18
2C
00
4C
4C
3C
0C
78
ENDCHAR

STARTCHAR onx234
ENCODING 234
SWIDTH 750 0
DWIDTH 6 0
BBX 6 8 0 -4
BITMAP
F8
00
C8
70
20
70
98
00
ENDCHAR

STARTCHAR onx235
ENCODING 235
SWIDTH 750 0
DWIDTH 6 0
BBX 6 8 0 -4
BITMAP
00
38
10
20
08
10
38
00
ENDCHAR

STARTCHAR onx236
ENCODING 236
SWIDTH 750 0
DWIDTH 6 0
BBX 6 8 0 -4
BITMAP
00
10
18
FC
18
10
00
00
ENDCHAR

STARTCHAR onx237
ENCODING 237
SWIDTH 750 0
DWIDTH 6 0
BBX 6 8 0 -4
BITMAP
00
20
60
FC
60
20
00
00
ENDCHAR

STARTCHAR onx238
ENCODING 238
SWIDTH 750 0
DWIDTH 6 0
BBX 6 8 0 -4
BITMAP
00
04
0C
10
20
40
7C
00
ENDCHAR

STARTCHAR onx239
ENCODING 239
SWIDTH 750 0
DWIDTH 6 0
BBX 6 8 0 -4
BITMAP
00
00
80
C0
60
30
F0
00
ENDCHAR

STARTCHAR onx240
ENCODING 240
SWIDTH 750 0
DWIDTH 6 0
BBX 6 8 0 -4
BITMAP
00
7C
00
7C
00
7C
00
00
ENDCHAR

STARTCHAR onx241
ENCODING 241
SWIDTH 750 0
DWIDTH 6 0
BBX 6 8 0 -4
BITMAP
10
10
7C
10
10
00
7C
00
ENDCHAR

STARTCHAR onx242
ENCODING 242
SWIDTH 750 0
DWIDTH 6 0
BBX 6 8 0 -4
BITMAP
20
10
08
10
20
00
7C
00
ENDCHAR

STARTCHAR onx243
ENCODING 243
SWIDTH 750 0
DWIDTH 6 0
BBX 6 8 0 -4
BITMAP
08
10
20
10
08
00
7C
00
ENDCHAR

STARTCHAR onx244
ENCODING 244
SWIDTH 750 0
DWIDTH 6 0
BBX 6 8 0 -4
BITMAP
00
08
14
14
10
10
10
10
ENDCHAR

STARTCHAR onx245
ENCODING 245
SWIDTH 750 0
DWIDTH 6 0
BBX 6 8 0 -4
BITMAP
10
10
10
10
50
50
20
00
ENDCHAR

STARTCHAR onx246
ENCODING 246
SWIDTH 750 0
DWIDTH 6 0
BBX 6 8 0 -4
BITMAP
00
10
00
7C
00
10
00
00
ENDCHAR

STARTCHAR onx247
ENCODING 247
SWIDTH 750 0
DWIDTH 6 0
BBX 6 8 0 -4
BITMAP
00
20
54
08
20
54
08
00
ENDCHAR

STARTCHAR onx248
ENCODING 248
SWIDTH 750 0
DWIDTH 6 0
BBX 6 8 0 -4
BITMAP
30
48
48
30
00
00
00
00
ENDCHAR

STARTCHAR onx249
ENCODING 249
SWIDTH 750 0
DWIDTH 6 0
BBX 6 8 0 -4
BITMAP
30
78
78
30
00
00
00
00
ENDCHAR

STARTCHAR onx250
ENCODING 250
SWIDTH 750 0
DWIDTH 6 0
BBX 6 8 0 -4
BITMAP
00
00
38
38
38
00
00
00
ENDCHAR

STARTCHAR onx251
ENCODING 251
SWIDTH 750 0
DWIDTH 6 0
BBX 6 8 0 -4
BITMAP
3C
20
20
20
A0
60
20
00
ENDCHAR

STARTCHAR onx252
ENCODING 252
SWIDTH 750 0
DWIDTH 6 0
BBX 6 8 0 -4
BITMAP
6C
30
18
6C
00
00
00
00
ENDCHAR

STARTCHAR onx253
ENCODING 253
SWIDTH 750 0
DWIDTH 6 0
BBX 6 8 0 -4
BITMAP
60
10
20
40
70
00
00
00
ENDCHAR

STARTCHAR onx254
ENCODING 254
SWIDTH 750 0
DWIDTH 6 0
BBX 6 8 0 -4
BITMAP
00
38
38
38
38
38
00
00
ENDCHAR

STARTCHAR onx255
ENCODING 255
SWIDTH 750 0
DWIDTH 6 0
BBX 6 8 0 -4
BITMAP
00
00
00
00
00
00
00
00
ENDCHAR
ENDFONT
